<svg version="1.1" id="Layer_1" xmlns="http://www.w3.org/2000/svg" xmlns:xlink="http://www.w3.org/1999/xlink" x="0px" y="0px"
	 width="100%" viewBox="0 0 577 175" enable-background="new 0 0 577 175" xml:space="preserve">
<path fill="#010101" opacity="0.0" stroke="none" 
	d="
M223.000000,1.000001 
	C341.271332,1.000000 459.542633,1.000000 577.906982,1.000000 
	C577.906982,59.240612 577.906982,117.481422 577.906982,176.000000 
	C476.645935,176.000000 375.291626,176.000000 273.092834,175.785034 
	C276.810822,171.284561 277.234039,166.444473 275.148560,160.630280 
	C270.777832,148.444931 266.725494,136.138275 262.834045,123.789558 
	C253.799393,95.119873 245.207764,66.307526 235.879974,37.734699 
	C231.863266,25.430704 230.505280,12.087287 222.545456,1.205981 
	C222.696976,1.137322 222.848480,1.068663 223.000000,1.000001 
M365.221191,119.325569 
	C365.557495,117.880959 366.187897,116.435463 366.183502,114.991890 
	C366.148987,103.669312 366.423126,92.318626 365.676331,81.037903 
	C365.347626,76.072792 363.615631,70.840576 361.213074,66.444283 
	C355.394409,55.797039 342.339752,53.055546 332.401031,59.919720 
	C329.568970,61.875648 327.104004,64.363045 324.239624,66.803635 
	C320.615662,61.026981 315.621460,57.327045 308.721405,56.241947 
	C301.270538,55.070229 296.099213,58.771896 291.614166,64.602745 
	C290.844238,62.612652 290.508972,61.493423 289.994995,60.463367 
	C288.198608,56.863369 283.036713,55.335327 276.650574,56.383575 
	C272.474670,57.069027 269.900787,59.326569 269.883301,63.677467 
	C269.813049,81.163834 269.707733,98.653320 270.034912,116.133789 
	C270.074432,118.243828 272.329224,121.725365 274.133942,122.156319 
	C284.556824,124.645256 292.434296,124.092262 291.655579,111.420441 
	C291.472015,108.433769 291.647034,105.424400 291.673615,102.425613 
	C291.722382,96.928017 291.612213,91.421722 291.894318,85.935814 
	C292.114685,81.651505 294.223480,78.596901 298.921356,78.374306 
	C303.529297,78.155968 305.996979,80.808014 306.871246,85.064659 
	C307.202362,86.676964 307.184296,88.376541 307.192474,90.036995 
	C307.231842,98.034195 306.858337,106.058098 307.431915,114.014809 
	C307.637177,116.861549 309.567169,121.417847 311.608795,121.990784 
	C322.217896,124.968002 329.923798,123.707443 329.119019,110.860573 
	C328.589600,102.409233 329.101654,93.878937 329.418762,85.394142 
	C329.574432,81.228996 331.887909,78.498909 336.311493,78.303909 
	C340.851837,78.103760 343.495575,80.583138 344.401031,84.859619 
	C344.810608,86.794014 344.824799,88.831810 344.848419,90.824699 
	C344.935303,98.154808 344.918427,105.486160 345.007141,112.816231 
	C345.051422,116.473915 344.791473,120.360634 348.965668,122.265495 
	C353.866425,124.501900 361.258942,123.417282 365.221191,119.325569 
M420.598145,57.709999 
	C412.374878,54.761990 404.967133,56.165092 398.480377,62.223389 
	C397.636719,60.982460 397.142334,59.865150 396.317566,59.107422 
	C391.979065,55.121513 386.795746,55.722897 381.745270,56.962120 
	C377.776672,57.935886 377.126862,61.492741 377.121490,64.922752 
	C377.080170,91.380836 377.048981,117.839478 377.199127,144.296906 
	C377.234192,150.475342 379.833588,152.285904 387.222534,152.328384 
	C395.103119,152.373688 397.522614,150.717499 397.732849,144.326279 
	C397.978821,136.847412 397.773224,129.354095 397.796387,121.867157 
	C397.801666,120.163689 397.941833,118.460632 398.047546,116.153564 
	C399.670868,117.014153 400.564392,117.387787 401.350464,117.920143 
	C408.593597,122.825500 416.492767,122.740051 423.579285,118.755196 
	C435.599731,111.995918 442.460144,101.351273 441.613678,87.185341 
	C440.802246,73.605560 433.503967,63.963531 420.598145,57.709999 
M540.565979,123.266541 
	C541.672974,122.901306 542.816956,122.620789 543.880920,122.156830 
	C550.060730,119.461899 551.868408,115.342674 549.531433,109.399376 
	C546.919617,102.757271 544.226746,101.957230 537.081726,103.771988 
	C532.015259,105.058815 526.564453,105.576942 521.346741,105.295769 
	C516.905579,105.056442 512.889343,102.806992 511.725800,97.132568 
	C513.539307,97.022026 514.825012,96.880371 516.111328,96.875542 
	C524.277527,96.844917 532.446655,96.970367 540.609497,96.796806 
	C547.958130,96.640556 552.890869,92.049309 553.779053,84.957542 
	C555.147339,74.032562 549.026611,61.822281 538.833618,58.018559 
	C532.947144,55.821903 526.160828,55.009789 519.834167,55.219788 
	C503.516266,55.761425 490.947876,68.179893 488.625458,84.929810 
	C486.304138,101.671692 495.459900,117.486343 510.618713,122.775391 
	C520.242859,126.133339 530.025513,124.868256 540.565979,123.266541 
M450.308044,33.952785 
	C450.279449,53.249268 450.093475,72.547501 450.309021,91.841263 
	C450.382843,98.449974 451.186371,105.088593 452.162445,111.638153 
	C453.084686,117.826523 457.510254,120.936005 463.332581,122.185928 
	C465.437775,122.637863 467.605957,122.861755 469.757874,123.019859 
	C483.038696,123.995598 484.767273,123.444298 483.765900,107.825493 
	C483.545074,104.381615 481.505371,102.152000 477.919373,102.318665 
	C472.810822,102.556084 471.876007,99.823921 471.903687,95.455864 
	C472.032074,75.161858 471.988403,54.866573 471.953522,34.571838 
	C471.941193,27.395195 469.607025,24.958727 462.581421,24.478861 
	C454.134338,23.901903 451.504822,25.743040 450.308044,33.952785 
z"/>
<path fill="#010101" opacity="0.000" stroke="none" 
	d="
M122.000000,176.000000 
	C117.643097,176.000000 113.286201,176.000000 108.072792,175.793213 
	C110.129005,172.975906 112.892715,170.695480 112.840225,165.912735 
	C112.588394,142.966644 112.785233,120.015930 112.755028,97.066940 
	C112.747475,91.328537 110.360367,88.887413 104.565895,88.774170 
	C96.420006,88.614983 88.269440,88.622963 80.121429,88.665329 
	C72.703804,88.703896 70.657829,90.732498 70.650726,98.201477 
	C70.630638,119.320808 70.750687,140.440384 70.686646,161.559479 
	C70.669769,167.121857 70.262451,172.649979 76.630318,175.374176 
	C76.420212,175.582779 76.210106,175.791397 76.000000,176.000000 
	C71.643097,176.000000 67.286201,176.000000 62.072174,175.779388 
	C63.931831,173.340302 67.313301,171.766647 67.277893,167.341583 
	C67.203499,158.044861 67.489265,148.745117 67.402023,139.448715 
	C67.355766,134.518402 64.891525,132.141876 59.988361,132.055252 
	C51.190018,131.899826 42.388309,131.868896 33.588337,131.895020 
	C27.796473,131.912216 25.448343,134.128204 25.290974,139.990479 
	C25.086065,147.623657 25.320465,155.269958 25.053810,162.899689 
	C24.881742,167.822998 25.250977,172.228683 30.348078,174.684723 
	C30.425360,174.721970 30.124424,175.544144 29.999996,176.000000 
	C20.344835,176.000000 10.689670,176.000000 1.017252,176.000000 
	C1.017252,117.747581 1.017252,59.495152 1.017252,1.000000 
	C55.353989,1.000000 109.708336,1.000000 164.908264,1.219061 
	C162.064896,4.579638 161.140854,8.533465 161.153656,13.345624 
	C161.282913,61.909439 161.210770,110.473846 161.150314,159.038025 
	C161.142670,165.180878 160.242554,171.522430 166.391678,175.690903 
	C166.261124,175.793945 166.130569,175.896973 166.000000,176.000000 
	C161.975449,176.000000 157.950912,176.000000 153.127106,175.742493 
	C155.243149,173.339432 158.091461,171.506180 158.077225,166.992920 
	C157.957413,129.039703 158.074753,91.085815 158.045639,53.132195 
	C158.041428,47.646900 155.538925,45.288986 150.059799,45.232521 
	C142.403122,45.153614 134.745255,45.169186 127.087944,45.180267 
	C117.505424,45.194138 116.084824,46.566521 116.083588,56.135509 
	C116.079025,91.589149 116.176605,127.042976 116.072113,162.496246 
	C116.056091,167.932602 116.115021,172.896515 122.386871,174.941177 
	C122.257919,175.294128 122.128960,175.647064 122.000000,176.000000 
z"/>
<path fill="#F06E5A" opacity="1.000000" stroke="none" 
	d="
M166.468658,176.000000 
	C166.130569,175.896973 166.261124,175.793945 166.391678,175.690903 
	C160.242554,171.522430 161.142670,165.180878 161.150314,159.038025 
	C161.210770,110.473846 161.282913,61.909439 161.153656,13.345624 
	C161.140854,8.533465 162.064896,4.579638 165.376923,1.219061 
	C184.020889,1.000000 203.041794,1.000000 222.531342,1.000001 
	C222.848480,1.068663 222.696976,1.137322 222.545456,1.205981 
	C230.505280,12.087287 231.863266,25.430704 235.879974,37.734699 
	C245.207764,66.307526 253.799393,95.119873 262.834045,123.789558 
	C266.725494,136.138275 270.777832,148.444931 275.148560,160.630280 
	C277.234039,166.444473 276.810822,171.284561 272.624176,175.785034 
	C261.979095,176.000000 250.958206,176.000000 239.896454,175.839752 
	C237.657196,171.152679 234.988754,166.788132 233.358688,162.065170 
	C230.003891,152.345016 227.268555,142.412521 224.108994,132.622040 
	C223.614670,131.090271 222.290985,128.709503 221.246765,128.653275 
	C214.534225,128.291840 207.792709,128.468613 200.693970,128.468613 
	C200.693970,139.958923 200.608795,150.568298 200.729034,161.175369 
	C200.791489,166.684464 201.368881,172.246414 195.355591,175.397949 
	C195.570404,175.598633 195.785202,175.799316 196.000000,176.000000 
	C186.312439,176.000000 176.624878,176.000000 166.468658,176.000000 
M207.902313,79.480438 
	C205.856613,73.220451 203.810913,66.960464 201.765213,60.700481 
	C201.500702,60.753529 201.236191,60.806576 200.971680,60.859627 
	C200.971680,69.165962 200.971680,77.472305 200.971680,85.854324 
	C203.997452,85.854324 206.569000,85.854324 209.493393,85.854324 
	C208.975464,83.713898 208.552841,81.967361 207.902313,79.480438 
z"/>
<path fill="#F1835E" opacity="1.000000" stroke="none" 
	d="
M122.468658,176.000000 
	C122.128960,175.647064 122.257919,175.294128 122.386871,174.941177 
	C116.115021,172.896515 116.056091,167.932602 116.072113,162.496246 
	C116.176605,127.042976 116.079025,91.589149 116.083588,56.135509 
	C116.084824,46.566521 117.505424,45.194138 127.087944,45.180267 
	C134.745255,45.169186 142.403122,45.153614 150.059799,45.232521 
	C155.538925,45.288986 158.041428,47.646900 158.045639,53.132195 
	C158.074753,91.085815 157.957413,129.039703 158.077225,166.992920 
	C158.091461,171.506180 155.243149,173.339432 152.663910,175.742493 
	C142.979111,176.000000 132.958206,176.000000 122.468658,176.000000 
z"/>
<path fill="#F59C65" opacity="1.000000" stroke="none" 
	d="
M76.468658,176.000000 
	C76.210106,175.791397 76.420212,175.582779 76.630318,175.374176 
	C70.262451,172.649979 70.669769,167.121857 70.686646,161.559479 
	C70.750687,140.440384 70.630638,119.320808 70.650726,98.201477 
	C70.657829,90.732498 72.703804,88.703896 80.121429,88.665329 
	C88.269440,88.622963 96.420006,88.614983 104.565895,88.774170 
	C110.360367,88.887413 112.747475,91.328537 112.755028,97.066940 
	C112.785233,120.015930 112.588394,142.966644 112.840225,165.912735 
	C112.892715,170.695480 110.129005,172.975906 107.608139,175.793213 
	C97.645775,176.000000 87.291542,176.000000 76.468658,176.000000 
z"/>
<path fill="#F3AF67" opacity="1.000000" stroke="none" 
	d="
M30.468655,176.000000 
	C30.124424,175.544144 30.425360,174.721970 30.348078,174.684723 
	C25.250977,172.228683 24.881742,167.822998 25.053810,162.899689 
	C25.320465,155.269958 25.086065,147.623657 25.290974,139.990479 
	C25.448343,134.128204 27.796473,131.912216 33.588337,131.895020 
	C42.388309,131.868896 51.190018,131.899826 59.988361,132.055252 
	C64.891525,132.141876 67.355766,134.518402 67.402023,139.448715 
	C67.489265,148.745117 67.203499,158.044861 67.277893,167.341583 
	C67.313301,171.766647 63.931831,173.340302 61.607521,175.779388 
	C51.645771,176.000000 41.291542,176.000000 30.468655,176.000000 
z"/>
<path fill="#010101" opacity="0.00" stroke="none" 
	d="
M196.468658,176.000000 
	C195.785202,175.799316 195.570404,175.598633 195.355591,175.397949 
	C201.368881,172.246414 200.791489,166.684464 200.729034,161.175369 
	C200.608795,150.568298 200.693970,139.958923 200.693970,128.468613 
	C207.792709,128.468613 214.534225,128.291840 221.246765,128.653275 
	C222.290985,128.709503 223.614670,131.090271 224.108994,132.622040 
	C227.268555,142.412521 230.003891,152.345016 233.358688,162.065170 
	C234.988754,166.788132 237.657196,171.152679 239.427795,175.839752 
	C224.979111,176.000000 210.958206,176.000000 196.468658,176.000000 
z"/>
<path fill="#ED6E59" opacity="1.000000" stroke="none" 
	d="
M365.007385,119.686127 
	C361.258942,123.417282 353.866425,124.501900 348.965668,122.265495 
	C344.791473,120.360634 345.051422,116.473915 345.007141,112.816231 
	C344.918427,105.486160 344.935303,98.154808 344.848419,90.824699 
	C344.824799,88.831810 344.810608,86.794014 344.401031,84.859619 
	C343.495575,80.583138 340.851837,78.103760 336.311493,78.303909 
	C331.887909,78.498909 329.574432,81.228996 329.418762,85.394142 
	C329.101654,93.878937 328.589600,102.409233 329.119019,110.860573 
	C329.923798,123.707443 322.217896,124.968002 311.608795,121.990784 
	C309.567169,121.417847 307.637177,116.861549 307.431915,114.014809 
	C306.858337,106.058098 307.231842,98.034195 307.192474,90.036995 
	C307.184296,88.376541 307.202362,86.676964 306.871246,85.064659 
	C305.996979,80.808014 303.529297,78.155968 298.921356,78.374306 
	C294.223480,78.596901 292.114685,81.651505 291.894318,85.935814 
	C291.612213,91.421722 291.722382,96.928017 291.673615,102.425613 
	C291.647034,105.424400 291.472015,108.433769 291.655579,111.420441 
	C292.434296,124.092262 284.556824,124.645256 274.133942,122.156319 
	C272.329224,121.725365 270.074432,118.243828 270.034912,116.133789 
	C269.707733,98.653320 269.813049,81.163834 269.883301,63.677467 
	C269.900787,59.326569 272.474670,57.069027 276.650574,56.383575 
	C283.036713,55.335327 288.198608,56.863369 289.994995,60.463367 
	C290.508972,61.493423 290.844238,62.612652 291.614166,64.602745 
	C296.099213,58.771896 301.270538,55.070229 308.721405,56.241947 
	C315.621460,57.327045 320.615662,61.026981 324.239624,66.803635 
	C327.104004,64.363045 329.568970,61.875648 332.401031,59.919720 
	C342.339752,53.055546 355.394409,55.797039 361.213074,66.444283 
	C363.615631,70.840576 365.347626,76.072792 365.676331,81.037903 
	C366.423126,92.318626 366.148987,103.669312 366.183502,114.991890 
	C366.187897,116.435463 365.557495,117.880959 365.007385,119.686127 
z"/>
<path fill="#ED6E59" opacity="1.000000" stroke="none" 
	d="
M420.959137,57.856010 
	C433.503967,63.963531 440.802246,73.605560 441.613678,87.185341 
	C442.460144,101.351273 435.599731,111.995918 423.579285,118.755196 
	C416.492767,122.740051 408.593597,122.825500 401.350464,117.920143 
	C400.564392,117.387787 399.670868,117.014153 398.047546,116.153564 
	C397.941833,118.460632 397.801666,120.163689 397.796387,121.867157 
	C397.773224,129.354095 397.978821,136.847412 397.732849,144.326279 
	C397.522614,150.717499 395.103119,152.373688 387.222534,152.328384 
	C379.833588,152.285904 377.234192,150.475342 377.199127,144.296906 
	C377.048981,117.839478 377.080170,91.380836 377.121490,64.922752 
	C377.126862,61.492741 377.776672,57.935886 381.745270,56.962120 
	C386.795746,55.722897 391.979065,55.121513 396.317566,59.107422 
	C397.142334,59.865150 397.636719,60.982460 398.480377,62.223389 
	C404.967133,56.165092 412.374878,54.761990 420.959137,57.856010 
M420.441223,90.928047 
	C420.624451,84.891373 418.055908,79.885216 413.507507,78.405060 
	C409.340698,77.049080 405.277710,77.452156 401.994110,80.860725 
	C398.345947,84.647697 397.690643,89.203995 399.667511,93.773842 
	C401.395294,97.767784 404.604065,100.351173 409.423889,100.232620 
	C414.680939,100.103310 417.920410,97.656830 420.441223,90.928047 
z"/>
<path fill="#EC6D59" opacity="1.000000" stroke="none" 
	d="
M540.179504,123.411690 
	C530.025513,124.868256 520.242859,126.133339 510.618713,122.775391 
	C495.459900,117.486343 486.304138,101.671692 488.625458,84.929810 
	C490.947876,68.179893 503.516266,55.761425 519.834167,55.219788 
	C526.160828,55.009789 532.947144,55.821903 538.833618,58.018559 
	C549.026611,61.822281 555.147339,74.032562 553.779053,84.957542 
	C552.890869,92.049309 547.958130,96.640556 540.609497,96.796806 
	C532.446655,96.970367 524.277527,96.844917 516.111328,96.875542 
	C514.825012,96.880371 513.539307,97.022026 511.725800,97.132568 
	C512.889343,102.806992 516.905579,105.056442 521.346741,105.295769 
	C526.564453,105.576942 532.015259,105.058815 537.081726,103.771988 
	C544.226746,101.957230 546.919617,102.757271 549.531433,109.399376 
	C551.868408,115.342674 550.060730,119.461899 543.880920,122.156830 
	C542.816956,122.620789 541.672974,122.901306 540.179504,123.411690 
M532.083191,78.414223 
	C528.759888,73.777481 524.109375,73.854309 519.568359,75.554977 
	C515.357971,77.131836 511.884918,79.889671 511.500824,85.799271 
	C516.971924,85.799271 521.908569,85.818092 526.844910,85.793709 
	C531.313293,85.771637 533.306763,83.670471 532.083191,78.414223 
z"/>
<path fill="#EB6D59" opacity="1.000000" stroke="none" 
	d="
M450.314026,33.508469 
	C451.504822,25.743040 454.134338,23.901903 462.581421,24.478861 
	C469.607025,24.958727 471.941193,27.395195 471.953522,34.571838 
	C471.988403,54.866573 472.032074,75.161858 471.903687,95.455864 
	C471.876007,99.823921 472.810822,102.556084 477.919373,102.318665 
	C481.505371,102.152000 483.545074,104.381615 483.765900,107.825493 
	C484.767273,123.444298 483.038696,123.995598 469.757874,123.019859 
	C467.605957,122.861755 465.437775,122.637863 463.332581,122.185928 
	C457.510254,120.936005 453.084686,117.826523 452.162445,111.638153 
	C451.186371,105.088593 450.382843,98.449974 450.309021,91.841263 
	C450.093475,72.547501 450.279449,53.249268 450.314026,33.508469 
z"/>
<path fill="#070505" opacity="0.0" stroke="none" 
	d="
M208.016266,79.850632 
	C208.552841,81.967361 208.975464,83.713898 209.493393,85.854324 
	C206.569000,85.854324 203.997452,85.854324 200.971680,85.854324 
	C200.971680,77.472305 200.971680,69.165962 200.971680,60.859627 
	C201.236191,60.806576 201.500702,60.753529 201.765213,60.700481 
	C203.810913,66.960464 205.856613,73.220451 208.016266,79.850632 
z"/>
<path fill="#060404" opacity="0.0" stroke="none" 
	d="
M420.388000,91.308060 
	C417.920410,97.656830 414.680939,100.103310 409.423889,100.232620 
	C404.604065,100.351173 401.395294,97.767784 399.667511,93.773842 
	C397.690643,89.203995 398.345947,84.647697 401.994110,80.860725 
	C405.277710,77.452156 409.340698,77.049080 413.507507,78.405060 
	C418.055908,79.885216 420.624451,84.891373 420.388000,91.308060 
z"/>
<path fill="#0C0909" opacity="0.0" stroke="none" 
	d="
M532.198730,78.776215 
	C533.306763,83.670471 531.313293,85.771637 526.844910,85.793709 
	C521.908569,85.818092 516.971924,85.799271 511.500824,85.799271 
	C511.884918,79.889671 515.357971,77.131836 519.568359,75.554977 
	C524.109375,73.854309 528.759888,73.777481 532.198730,78.776215 
z"/>
</svg>