<svg version="1.1" id="Layer_1" xmlns="http://www.w3.org/2000/svg" xmlns:xlink="http://www.w3.org/1999/xlink" x="0px" y="0px"
	 width="100%" viewBox="0 0 577 433" enable-background="new 0 0 577 433" xml:space="preserve">
<path fill="#000000" opacity="0.00" stroke="none" 
	d="
M339.000000,434.000000 
	C226.000031,434.000000 113.500053,434.000000 1.000060,434.000000 
	C1.000040,289.666718 1.000040,145.333450 1.000020,1.000138 
	C193.333237,1.000092 385.666473,1.000092 577.999756,1.000046 
	C577.999878,145.333191 577.999878,289.666382 577.999939,433.999786 
	C498.500000,434.000000 419.000000,434.000000 339.000000,434.000000 
M255.981903,175.982483 
	C255.981903,175.982483 255.979843,175.909531 255.437744,176.046906 
	C255.260132,176.359772 255.082520,176.672638 254.981369,176.984924 
	C254.981369,176.984924 254.977753,176.908539 254.446884,177.083176 
	C254.351883,177.409485 254.256866,177.735794 254.026505,178.438187 
	C254.026505,178.438187 254.027405,178.837875 253.240829,179.275421 
	C253.165833,179.598984 253.025223,179.922501 253.025085,180.246078 
	C253.009888,218.868362 252.997696,257.490631 253.040573,296.112885 
	C253.041687,297.119415 253.650024,298.125336 254.005478,299.808319 
	C255.272171,300.874359 256.538849,301.940399 258.255676,303.789001 
	C269.034729,303.876038 279.813782,303.976135 290.592987,304.008545 
	C291.090607,304.010040 291.590057,303.404968 292.057526,303.021240 
	C292.057526,303.021240 292.022552,303.080292 292.572876,302.943176 
	C292.773590,302.632416 292.974274,302.321686 293.809784,301.989319 
	C294.211243,301.404449 294.612701,300.819550 295.791016,299.766571 
	C295.867584,299.276642 296.011078,298.786682 296.011139,298.296753 
	C296.015015,259.301086 296.016266,220.305389 295.959686,181.309799 
	C295.957977,180.130859 295.342682,178.952805 294.786072,177.244019 
	C293.925690,176.493454 293.065308,175.742905 291.754974,174.208054 
	C280.649231,174.130707 269.543518,174.040588 258.437653,174.017029 
	C257.928314,174.015945 257.417725,174.613342 256.971191,174.968811 
	C256.971191,174.968811 256.975952,174.895584 256.430023,175.032867 
	C256.256317,175.348999 256.082611,175.665146 255.981903,175.982483 
M200.754044,303.973816 
	C202.168686,301.485504 204.649841,299.060974 204.803284,296.497192 
	C205.317734,287.900635 204.737808,279.242859 205.111633,270.631775 
	C205.305161,266.173828 204.613190,262.776642 199.729614,260.204742 
	C189.763596,260.130615 179.797607,260.036743 169.831528,260.026825 
	C169.165573,260.026154 168.498978,260.661987 167.140747,261.011658 
	C165.770920,262.267975 164.401093,263.524292 162.235672,265.223236 
	C162.155548,276.019531 162.062225,286.815765 162.037048,297.612183 
	C162.035873,298.115204 162.643600,298.619659 163.000458,299.745667 
	C163.608337,300.500946 164.216202,301.256195 165.042633,302.580505 
	C165.398697,302.672333 165.754776,302.764160 166.447952,302.984161 
	C166.447952,302.984161 166.808548,302.990265 167.257141,303.774109 
	C178.175552,303.797180 189.093964,303.820221 200.754044,303.973816 
M212.140579,218.014160 
	C207.333649,219.876526 207.886230,224.011734 207.165298,228.354813 
	C207.109940,239.250671 207.038101,250.146530 207.039017,261.042389 
	C207.039078,261.714722 207.612457,262.386963 207.977264,263.896515 
	C207.979797,274.712311 207.964325,285.528168 207.992554,296.343872 
	C208.006302,301.611298 210.400818,303.974243 215.748047,303.992096 
	C224.531418,304.021484 233.319611,303.830841 242.096176,304.076172 
	C245.591278,304.173859 248.165665,303.276672 250.750732,299.812164 
	C250.835907,274.304932 250.926926,248.797729 250.963486,223.290436 
	C250.964203,222.788254 250.326111,222.285156 249.739594,221.196945 
	C248.440430,220.177994 247.141281,219.159042 245.719940,217.244202 
	C235.274490,217.165924 224.829086,217.074020 214.383514,217.050842 
	C213.878967,217.049713 213.373062,217.653046 212.140579,218.014160 
M298.181274,242.330933 
	C298.115753,255.915680 298.036255,269.500427 298.026581,283.085205 
	C298.026093,283.750671 298.635986,284.416565 298.995758,286.005066 
	C298.997437,289.823395 299.057831,293.642883 298.985077,297.459778 
	C298.904053,301.710938 300.905823,303.951721 305.153442,303.977142 
	C313.785889,304.028839 322.420105,304.084686 331.050964,303.958008 
	C334.285461,303.910553 337.213531,302.934662 338.780579,298.705994 
	C338.853912,285.184692 338.927216,271.663361 339.929840,258.014252 
	C345.088074,258.007111 350.267059,258.280731 355.397766,257.901337 
	C359.288239,257.613678 360.943573,259.152283 361.975159,262.699677 
	C365.504547,274.836304 369.316437,286.890472 372.923035,299.005157 
	C373.966217,302.509186 376.035950,304.068054 379.729462,304.022217 
	C389.046295,303.906647 398.365570,304.000061 407.683838,303.984589 
	C412.510864,303.976562 415.860474,299.634735 414.374756,294.903748 
	C410.015930,281.023834 405.401123,267.224396 401.030914,253.348007 
	C392.965790,227.739624 384.962311,202.111618 377.016418,176.466003 
	C373.238556,164.272797 369.579346,152.041458 366.007355,139.786301 
	C364.014648,132.949509 361.888123,131.234467 353.601349,130.139618 
	C341.399506,130.093903 329.197693,130.033875 316.995880,130.041183 
	C316.325684,130.041580 315.655823,130.602264 314.070892,130.993317 
	C312.576385,130.999283 311.081848,131.009064 309.587341,131.010620 
	C299.977905,131.020645 297.887115,132.960449 298.048828,142.430405 
	C298.164001,149.174179 298.798950,155.908020 298.970398,162.652191 
	C299.135406,169.143021 299.004730,175.641418 299.000763,182.136490 
	C298.988556,202.063553 298.974823,221.990616 298.181274,242.330933 
z"/>
<path fill="#F26F5B" opacity="1.000000" stroke="none" 
	d="
M337.990845,299.123993 
	C337.213531,302.934662 334.285461,303.910553 331.050964,303.958008 
	C322.420105,304.084686 313.785889,304.028839 305.153442,303.977142 
	C300.905823,303.951721 298.904053,301.710938 298.985077,297.459778 
	C299.057831,293.642883 298.997437,289.823395 299.025055,285.071991 
	C299.023468,270.065186 298.992584,255.991425 298.961731,241.917679 
	C298.974823,221.990616 298.988556,202.063553 299.000763,182.136490 
	C299.004730,175.641418 299.135406,169.143021 298.970398,162.652191 
	C298.798950,155.908020 298.164001,149.174179 298.048828,142.430405 
	C297.887115,132.960449 299.977905,131.020645 309.587341,131.010620 
	C311.081848,131.009064 312.576385,130.999283 314.995544,130.992126 
	C328.618286,130.961792 341.316315,130.932663 354.014374,130.903534 
	C361.888123,131.234467 364.014648,132.949509 366.007355,139.786301 
	C369.579346,152.041458 373.238556,164.272797 377.016418,176.466003 
	C384.962311,202.111618 392.965790,227.739624 401.030914,253.348007 
	C405.401123,267.224396 410.015930,281.023834 414.374756,294.903748 
	C415.860474,299.634735 412.510864,303.976562 407.683838,303.984589 
	C398.365570,304.000061 389.046295,303.906647 379.729462,304.022217 
	C376.035950,304.068054 373.966217,302.509186 372.923035,299.005157 
	C369.316437,286.890472 365.504547,274.836304 361.975159,262.699677 
	C360.943573,259.152283 359.288239,257.613678 355.397766,257.901337 
	C350.267059,258.280731 345.088074,258.007111 339.138428,258.325012 
	C338.228302,272.131836 338.109558,285.627930 337.990845,299.123993 
M340.015808,191.420120 
	C339.663971,190.619370 339.312134,189.818619 338.960297,189.017868 
	C338.005798,195.225677 337.906555,201.278870 338.053009,207.326096 
	C338.114410,209.860458 338.696594,212.382217 339.917786,214.973557 
	C341.864319,214.973557 343.810852,214.973557 346.496704,214.973557 
	C344.208771,206.919540 342.104401,199.511734 340.015808,191.420120 
z"/>
<path fill="#F4845F" opacity="1.000000" stroke="none" 
	d="
M257.805542,303.006470 
	C256.538849,301.940399 255.272171,300.874359 254.004974,298.992706 
	C254.012100,258.397369 254.019760,218.617615 254.027405,178.837875 
	C254.027405,178.837875 254.026505,178.438187 254.273926,178.090530 
	C254.738480,177.500290 254.890610,177.222183 254.977753,176.908539 
	C254.977753,176.908539 254.981369,176.984924 255.178162,176.867722 
	C255.576599,176.470200 255.778229,176.189865 255.979843,175.909531 
	C255.979843,175.909531 255.981903,175.982483 256.179932,175.862854 
	C256.577271,175.460663 256.776611,175.178116 256.975952,174.895569 
	C256.975952,174.895584 256.971191,174.968811 257.413422,174.980255 
	C269.305420,174.991913 280.755157,174.992126 292.204926,174.992340 
	C293.065308,175.742905 293.925690,176.493454 294.884827,177.994965 
	C294.993774,219.242157 295.003967,259.738403 295.014160,300.234650 
	C294.612701,300.819550 294.211243,301.404449 293.247803,302.116882 
	C292.464722,302.523071 292.243622,302.801666 292.022552,303.080292 
	C292.022552,303.080292 292.057526,303.021240 291.600647,303.006531 
	C280.031036,302.996735 268.918274,303.001587 257.805542,303.006470 
z"/>
<path fill="#F89D67" opacity="1.000000" stroke="none" 
	d="
M245.842117,218.140076 
	C247.141281,219.159042 248.440430,220.177994 249.850464,221.975494 
	C249.964905,248.603134 249.968475,274.452240 249.972046,300.301361 
	C248.165665,303.276672 245.591278,304.173859 242.096176,304.076172 
	C233.319611,303.830841 224.531418,304.021484 215.748047,303.992096 
	C210.400818,303.974243 208.006302,301.611298 207.992554,296.343872 
	C207.964325,285.528168 207.979797,274.712311 207.997009,263.008759 
	C207.989258,250.724991 207.961746,239.328979 207.934235,227.932968 
	C207.886230,224.011734 207.333649,219.876526 212.981506,218.003189 
	C224.495667,218.041504 235.168900,218.090790 245.842117,218.140076 
z"/>
<path fill="#F6B268" opacity="1.000000" stroke="none" 
	d="
M163.031265,264.780609 
	C164.401093,263.524292 165.770920,262.267975 167.967163,261.030640 
	C179.248611,261.030884 189.703644,261.012146 200.158691,260.993408 
	C204.613190,262.776642 205.305161,266.173828 205.111633,270.631775 
	C204.737808,279.242859 205.317734,287.900635 204.803284,296.497192 
	C204.649841,299.060974 202.168686,301.485504 200.045380,303.667053 
	C188.493988,303.236938 177.651260,303.113586 166.808548,302.990234 
	C166.808548,302.990265 166.447952,302.984161 166.106873,302.721405 
	C165.451889,302.309601 165.137970,302.160553 164.824066,302.011475 
	C164.216202,301.256195 163.608337,300.500946 163.014053,298.958740 
	C163.028854,287.041412 163.030060,275.911011 163.031265,264.780609 
z"/>
<path fill="#E09179" opacity="1.000000" stroke="none" 
	d="
M295.402588,300.000610 
	C295.003967,259.738403 294.993774,219.242157 294.998535,178.260117 
	C295.342682,178.952805 295.957977,180.130859 295.959686,181.309799 
	C296.016266,220.305389 296.015015,259.301086 296.011139,298.296753 
	C296.011078,298.786682 295.867584,299.276642 295.402588,300.000610 
z"/>
<path fill="#F0B5A0" opacity="1.000000" stroke="none" 
	d="
M253.634125,179.056641 
	C254.019760,218.617615 254.012100,258.397369 253.989807,298.654297 
	C253.650024,298.125336 253.041687,297.119415 253.040573,296.112885 
	C252.997696,257.490631 253.009888,218.868362 253.025085,180.246078 
	C253.025223,179.922501 253.165833,179.598984 253.634125,179.056641 
z"/>
<path fill="#F0B5A0" opacity="1.000000" stroke="none" 
	d="
M250.361389,300.056763 
	C249.968475,274.452240 249.964905,248.603134 249.973694,222.268265 
	C250.326111,222.285156 250.964203,222.788254 250.963486,223.290436 
	C250.926926,248.797729 250.835907,274.304932 250.361389,300.056763 
z"/>
<path fill="#F4CFB5" opacity="1.000000" stroke="none" 
	d="
M298.571503,242.124298 
	C298.992584,255.991425 299.023468,270.065186 299.007996,284.610596 
	C298.635986,284.416565 298.026093,283.750671 298.026581,283.085205 
	C298.036255,269.500427 298.115753,255.915680 298.571503,242.124298 
z"/>
<path fill="#F4CFB5" opacity="1.000000" stroke="none" 
	d="
M338.385712,298.914978 
	C338.109558,285.627930 338.228302,272.131836 338.673767,258.388916 
	C338.927216,271.663361 338.853912,285.184692 338.385712,298.914978 
z"/>
<path fill="#FAE9E3" opacity="1.000000" stroke="none" 
	d="
M353.807861,130.521576 
	C341.316315,130.932663 328.618286,130.961792 315.453003,130.946533 
	C315.655823,130.602264 316.325684,130.041580 316.995880,130.041183 
	C329.197693,130.033875 341.399506,130.093903 353.807861,130.521576 
z"/>
<path fill="#FAE9E3" opacity="1.000000" stroke="none" 
	d="
M207.549774,228.143890 
	C207.961746,239.328979 207.989258,250.724991 207.967926,262.590149 
	C207.612457,262.386963 207.039078,261.714722 207.039017,261.042389 
	C207.038101,250.146530 207.109940,239.250671 207.549774,228.143890 
z"/>
<path fill="#E09179" opacity="1.000000" stroke="none" 
	d="
M291.979950,174.600189 
	C280.755157,174.992126 269.305420,174.991913 257.381683,174.961853 
	C257.417725,174.613342 257.928314,174.015945 258.437653,174.017029 
	C269.543518,174.040588 280.649231,174.130707 291.979950,174.600189 
z"/>
<path fill="#F4CFB5" opacity="1.000000" stroke="none" 
	d="
M162.633469,265.001923 
	C163.030060,275.911011 163.028854,287.041412 162.997696,298.647644 
	C162.643600,298.619659 162.035873,298.115204 162.037048,297.612183 
	C162.062225,286.815765 162.155548,276.019531 162.633469,265.001923 
z"/>
<path fill="#E09179" opacity="1.000000" stroke="none" 
	d="
M258.030609,303.397736 
	C268.918274,303.001587 280.031036,302.996735 291.616211,303.037109 
	C291.590057,303.404968 291.090607,304.010040 290.592987,304.008545 
	C279.813782,303.976135 269.034729,303.876038 258.030609,303.397736 
z"/>
<path fill="#F4CFB5" opacity="1.000000" stroke="none" 
	d="
M245.781036,217.692139 
	C235.168900,218.090790 224.495667,218.041504 213.345123,217.983551 
	C213.373062,217.653046 213.878967,217.049713 214.383514,217.050842 
	C224.829086,217.074020 235.274490,217.165924 245.781036,217.692139 
z"/>
<path fill="#F0B5A0" opacity="1.000000" stroke="none" 
	d="
M167.032837,303.382172 
	C177.651260,303.113586 188.493988,303.236938 199.674530,303.601807 
	C189.093964,303.820221 178.175552,303.797180 167.032837,303.382172 
z"/>
<path fill="#F4CFB5" opacity="1.000000" stroke="none" 
	d="
M199.944153,260.599060 
	C189.703644,261.012146 179.248611,261.030884 168.313110,261.025696 
	C168.498978,260.661987 169.165573,260.026154 169.831528,260.026825 
	C179.797607,260.036743 189.763596,260.130615 199.944153,260.599060 
z"/>
<path fill="#E09179" opacity="1.000000" stroke="none" 
	d="
M254.712311,176.995850 
	C254.890610,177.222183 254.738480,177.500290 254.341614,177.902496 
	C254.256866,177.735794 254.351883,177.409485 254.712311,176.995850 
z"/>
<path fill="#E09179" opacity="1.000000" stroke="none" 
	d="
M255.708801,175.978210 
	C255.778229,176.189865 255.576599,176.470200 255.139938,176.868011 
	C255.082520,176.672638 255.260132,176.359772 255.708801,175.978210 
z"/>
<path fill="#E09179" opacity="1.000000" stroke="none" 
	d="
M256.703003,174.964218 
	C256.776611,175.178116 256.577271,175.460663 256.143433,175.862244 
	C256.082611,175.665146 256.256317,175.348999 256.703003,174.964218 
z"/>
<path fill="#F0B5A0" opacity="1.000000" stroke="none" 
	d="
M164.933350,302.295990 
	C165.137970,302.160553 165.451889,302.309601 165.938324,302.657288 
	C165.754776,302.764160 165.398697,302.672333 164.933350,302.295990 
z"/>
<path fill="#E09179" opacity="1.000000" stroke="none" 
	d="
M292.297729,303.011719 
	C292.243622,302.801666 292.464722,302.523071 292.930389,302.127686 
	C292.974274,302.321686 292.773590,302.632416 292.297729,303.011719 
z"/>
<path fill="#000000" opacity="0.0" stroke="none" 
	d="
M340.000000,192.103928 
	C342.104401,199.511734 344.208771,206.919540 346.496704,214.973557 
	C343.810852,214.973557 341.864319,214.973557 339.457367,214.482407 
	C338.996399,209.827499 338.869476,205.658661 339.036652,201.501648 
	C339.162964,198.361237 339.665131,195.235947 340.000000,192.103928 
z"/>
<path fill="#F4CFB5" opacity="1.000000" stroke="none" 
	d="
M340.007935,191.762024 
	C339.665131,195.235947 339.162964,198.361237 339.036652,201.501648 
	C338.869476,205.658661 338.996399,209.827499 339.019470,214.450470 
	C338.696594,212.382217 338.114410,209.860458 338.053009,207.326096 
	C337.906555,201.278870 338.005798,195.225677 338.960297,189.017868 
	C339.312134,189.818619 339.663971,190.619370 340.007935,191.762024 
z"/>
</svg>